<?xml version="1.0" encoding="UTF-8"?><svg id="Lager_2" xmlns="http://www.w3.org/2000/svg" viewBox="0 0 200 200"><defs><style>.cls-1{fill:none;}.cls-2{fill:#fdc400;}.cls-2,.cls-3,.cls-4,.cls-5{fill-rule:evenodd;}.cls-3{fill:#131f35;}.cls-6,.cls-4{fill:#17253c;}.cls-5{fill:#cecece;}</style></defs><g id="Layer_4"><path class="cls-5" d="M175.47,33.99c-1.18-3.15-3.9-6.62-7.1-10.27-2.16-2.47-7.3-6.5-12.22-7.9-6.08-1.73-14.19-1.6-14.19-1.6-2.96-1.91-16.51-10.33-27.34-11.43-17.36-1.76-26.9,1.37-38.02,10.64-9.73,8.11-14.21,18.21-15.14,20.13h0l-.32.65h0c-.36.21-.89.51-1.6.89-4.33,2.35-8.62,5.75-12.85,10.2-3.2,3.35-5.89,6.73-8.08,10.13-9.27,14.41-16.22,24.39-20.85,29.94-5.9,7.07-11.24,12.14-16.04,15.21-.47.3-.85.7-1.12,1.2-.27.49-.41,1.02-.41,1.59H.2v.22H.2c0,.54.12,1.05.37,1.52.25.48.59.87,1.03,1.18,6.12,4.29,14.2,6.78,24.25,7.45,2.84.19,4.47.29,4.89.29h.07s.04,0,.06,0c7.46-.24,13.75-.77,18.88-1.58.58-.09,2.52-.24,5.84-.46,1.63-.11,3.12-.16,4.45-.16,11.97,0,21.98,4.02,30.02,12.08,3.81,3.81,5.77,10.76,5.79,13.45.05,6.81-1.21,9.78-.47,13.11,1.12,5.05,1.78,6.52,4.09,9.69,2.89,3.96,4.35,4.31,6.19,5.37,3.29,1.89,5.61,2.3,9.33,2.92,1.62.27,1.89-1.47,2.55-1.99.75-.59,3,.15,4.52,1.37,2.56,2.05,4.48,4.36,4.94,4.7,2.06,1.48,6.41,4.59,9.85,2.78,2.44-1.28,2.4-1.27,5.61-5.1,3.17-3.79,3.04-4.55,11.21-12.3,5.59-5.3,9.95-10.87,11.41-15.3,1.73-5.25.69-7.79.51-8.66-.05-.23-.07-.46-.07-.69,0-.6.17-1.26.52-1.96h0l.71-1.34h0c3.27-6.06,5.99-15.37,8.16-27.93.86-5,1.64-8.26,2.34-9.78,2.5-5.44,3.87-9.11,4.11-11.01.05-.38.07-.79.07-1.22,0-3.35-1.58-9-4.72-16.96h0l-.59-1.48h0c-.03-.07-.06-.15-.1-.22.06-.12.13-.25.2-.39,1.68-3.37,2.52-7.23,2.52-11.59,0-2.15-.21-4.42-.62-6.81-.39-2.24-1.01-4.44-1.87-6.59"/><path class="cls-4" d="M174.9,43.77l-.45-2.66s-2.03-11.54-14.48-19.82c-7.49-4.99-18.73-4.04-18.73-4.04,0,0-1.78-1.09-4.57-2.53-2.79-1.44-4.79-2.99-10.36-5.18-6.34-2.48-16.36-4.67-25.69-2.88-4.2.81-10.08,2.46-14.39,4.71-5.36,2.8-5.84,3.38-10.03,7.26-2.98,2.76-5.95,7.26-7.65,9.63-1.7,2.37-3.31,4.89-4.19,6.68h0l-.34.69-.34.69h0c-.03.08-.27.25-.71.51-.44.27-1.08.63-1.91,1.09-2.01,1.08-4.01,2.42-6.02,4.02-2.01,1.6-4.01,3.45-6.02,5.55-1.53,1.61-2.93,3.21-4.22,4.82-1.28,1.61-2.44,3.21-3.47,4.82-4.65,7.23-8.73,13.36-12.25,18.41-3.52,5.05-6.47,9-8.84,11.86-3.07,3.68-6.01,6.83-8.8,9.48-2.8,2.64-5.46,4.78-7.99,6.4h0v.22h0c2.79,1.96,6.07,3.51,9.83,4.66,3.76,1.14,8.01,1.88,12.74,2.2,1.48.09,2.61.16,3.39.21.78.05,1.21.07,1.3.07,3.75-.12,7.16-.32,10.24-.58,3.08-.26,5.82-.58,8.22-.97.31-.05.97-.12,2-.2,1.02-.08,2.4-.19,4.15-.29,3.74-.25,9.57-.45,16.18,1.12,6.61,1.57,14,4.91,20.84,11.75,4.11,4.53,5.73,8.83,6.3,12.52.57,3.69.08,6.78-.03,8.89-.04.83.03,2.64.12,4.24.09,1.6.18,3,.18,3,.74,3.23,1.89,5.39,2.98,6.84,1.08,1.45,2.28,3.15,2.73,3.55,1.65,1.38,4.58,3.09,7.47,3.09,5.88,0,5.94-1.17,14.45,3.25"/><path class="cls-3" d="M115.94,161.93c1.6,0,8.71,2.98,10.08,4.36,1.51,1.52.89,1.77,2.96,3.46,2.63,2.14,4.32,1.72,4.32,1.72,0,0,2.08-.33,3.65-1.7,1.57-1.37,4.7-5.86,6.06-6.76,1.36-.91,4.61-4.53,4.61-4.53,0,0,5.59-6.75,7.73-8.72,1.34-1.24,4.11-4.51,4.94-6.17.83-1.66,1.32-2.74,1.32-2.74l.46-1.41.11-.51.11-.51h0c.14-.62.21-1.25.21-1.9s-.07-1.3-.21-1.97c-.17-.79-.19-1.58-.07-2.39.12-.81.39-1.63.81-2.46h0l.37-.69.37-.69h0c1.56-2.89,2.99-6.58,4.29-11.07,1.3-4.49,2.47-9.78,3.52-15.86.45-2.59.89-4.78,1.32-6.55.43-1.77.86-3.12,1.27-4.05,1.19-2.56,2.1-4.69,2.74-6.36.64-1.68,1-2.9,1.09-3.67.17-1.34-.12-3.4-.86-6.16s-1.94-6.23-3.59-10.4h0l-.29-.74-.29-.74-.35-.66-.35-.66h0s.05-.19.21-.51c.15-.33.39-.81.72-1.46,1.1-2.19,1.78-4.66,2.04-7.39.27-2.73.12-5.72-.44-8.98"/><path class="cls-2" d="M108.32,104.66c.03.15.06.31.06.37h0l.06.4.09.37.09.62h0c-.09-.03-.19,0-.28.06h0l-.03.12h0c-.77.09-2.22-.37-4.42-1.42-1.76-.86-2.87-1.27-3.3-1.24,0,.06,0,.09-.03.15.96.8,3.86,2.16,8.74,4.01h0l1.51.56h0c2.1.8,3.21,16.55,3.18,18.93h0l-.03,1.64h0c-.03.53-.03,1.08-.06,1.64-.09,4.97-.31,9.3-.68,12.97-.28,2.93-.22,5.62.15,8.06.86,5.31.62,8.4-.74,9.27-2.22.22-5.06-1.54-8.46-5.28-3.09-3.4-3.55-8.52-3.24-13.37.4-6.58.09-11.4-3.64-17.66-2.04-3.4-5.65-7.01-10.87-10.81-5.34-3.92-13.15-6.48-23.37-7.69-3.21-.37-6.85-.31-10.96.19-20.32,2.41-37.92-.46-42.98-3.98,9.26-7.1,19.02-18.96,29.24-35.58,4.48-7.32,8.74-13.1,12.78-17.33,5.16-5.44,8.83-8.12,10.99-8.09,0,.06.06.09.15.09-1.61,8.18-1.2,16.83,1.23,25.94.99,3.61,3.09,7.07,6.36,10.35,3.33,3.34,7.5,5,12.51,5,11.02,0,16.89-5.16,17.63-15.44.31-4.2-.22-7.54-1.58-10.01h0l-.31.06h0c-6.76,13.77-17.72,9.45-18.74.12-.59-5.53,2.07-13.1,8.46-15.41,1.67-.62,12.35-3.18,16.7,3.98,1.61,2.66,4.04,12.26,4.29,13.62-.99.31-1.54.49-1.64.62h0l-.22.22v-.43h0c0-.86-.65-3.49-1.91-7.78-2.78-9.36-10.25-9.85-15.66-8.25-7.23,2.13-10.07,13.25-5.19,18.28,3.8,3.89,9.48-1.23,11.27-3.92,1.14-1.76,1.98-3.68,2.47-5.74,4.04,3.95,7.01,15.81.43,25.54-3.46,5.13-9.26,7.38-17.35,6.79-3.71-.28-7.56-1.73-11.58-4.39-3.61-2.41-6.73-7.6-7.63-9.73-1.88-4.6-2.81-12.35-2.81-23.32,0-1.08-.03-1.64-.09-1.67-.03-.03-.12-.06-.22-.12-3.46,1.48-12.01,11.33-17.75,21.31-5.8,10.07-11.64,18.47-17.48,25.23-3.15,3.64-5.74,6.08-7.81,7.29h0v.31h0c15.04-1.64,27.88-3.89,38.5-6.73,10.84-2.9,19.02-4.48,24.55-4.69,6.27-.28,10.41-.71,12.41-1.3,4.72-1.42,7.87-3.18,9.42-5.22,2.1,2.53,7.01,4.82,14.05,3.49,7.26-1.42,8.68-4.85,9.26-8.96.09-.74.15-1.27.22-1.58h0l.18-1.54h0c.49-3.92.8-5.99.93-6.24.25-.4.56-.77.99-1.02.03-.03.53-.19,1.48-.46,13.06-3.83,20.53-7.29,22.48-10.38,1.51-2.44,1.79-5.03.8-7.75h0l-.56-1.58h0c-1.36-3.86-1.61-5.74-.71-5.65.46.06,2.01,1.48,4.6,4.29,3.15,3.4,10.96,13.65,12.97,17.54,3.18,6.15,5.96,15.91,6.11,17.82.22,2.78-.46,5.56-1.98,8.31-1.73,3.09-2.78,5.44-3.12,7.07-.06.31-.43,2.87-1.14,7.75-1.48,10.5-3.98,18.96-7.44,25.39-.83,1.58-1.27,3.03-1.36,4.38,0,.06,0,.56-.03,1.58h0v1.58l-.03,1.58h0c-.06,2.41-.93,4.79-2.62,7.04-1.33,1.76-3.89,4.94-7.69,9.54-.59.71-1.2,1.51-1.85,2.44-1.42,2.07-2.38,3.24-2.87,3.52h0l-1.3.77h0c-.65.4-1.95,1.95-3.92,4.66-1.73,2.44-3.86,3.64-6.33,3.64-3.55-2.35-4.11-9.36-1.67-21.03.22-1.02,1.08-3.58,2.66-7.69,2.22-5.93,3.89-10.38-5.09-18.53-2.69-2.44-5.62-5.4-8.77-8.86-1.24-1.39-2.35-2.47-3.27-3.3-.03-.06-.03-.15,0-.31.15-.22.65-.53,1.54-.93h0v-.4h0c0-.46-.43-.52-1.33-.15-1.42.62-5.8-.12-7.13-3.55h-.31"/><path class="cls-2" d="M152.27,35.84l.31.15,1.2.96h0c5.65,4.51,12.2,3.8,11.55-1.11-.15-1.11-.19-1.73-.15-1.85,6.08,6.15,4.76,20.57,3.55,23.04-.68-.12-1.11-.34-1.3-.62h0l-.83-1.36h0c-4.51-7.35-8.61-12.88-12.32-16.58-1.33-1.33-2.01-2.16-2.01-2.44h0v-.19h0"/><path class="cls-2" d="M108.1,45.92l.34.12h0c2.13.74,11.46-.34,16.64-5.81,6.21-6.45,5.16-19.27-.09-24.03.19-.12,6.36,2.69,7.32,3.3,6.05,3.86,10.22,9.05,12.54,15.66,1.05,3.03,2.41,12.29,1.76,12.69-6.73-2.78-13.52-3-20.41-.59-6.36,2.19-12.35,7.07-13.77,9.54h-.31c-.83-2.78-1.94-5.84-3.34-9.2-.46-1.08-.68-1.64-.68-1.7h0"/><path class="cls-2" d="M105.64,12.5c4.69-.06,8.03.18,9.97.77h0l1.54.46h.31v.22h-.53c-.28,0-4.35.68-7.44,2.93-3.89,2.81-5.87,6.45-5.99,10.96-.68-1.61-1.08-3.21-1.17-4.76h0l-.09-1.64h0c-.03-.59-.46-.8-1.23-.62-1.54,1.3-2.69,3.71-3.46,7.2-.43-1.17-.83-3.24-1.23-6.18-.28-.43-.71-.62-1.3-.62-1.39,1.17-3.77,4.51-4.01,7.32h-.19v-.31l-.4-1.36h0c-.28-.96-.28-2.22,0-3.83.22-1.17-.19-1.73-1.14-1.61-.62.06-3.95,3.24-4.75,7.72h-.19v-.31l-.59-1.79-.46-1.82h0c-.28-1.08-.43-1.67-.53-1.79-.37-.49-.83-.86-1.42-1.08h0v-.31h0c4.72-3.55,6.18-4.51,13.59-7.41,3.52-1.39,7.1-2.1,10.71-2.16h0"/><path class="cls-2" d="M71.38,32.65l.03.22h0s-.25.59-.68,1.61c-2.1,4.88-3.33,10.28-3.64,16.18-.09,1.48.06,2.35.43,2.59.31.22.65.28,1.02.22.56-.43,1.08-1.27,1.64-2.53.87-2.01,1.51-3.4,2.04-4.17,0,.09-.12.74-.4,1.98-1.79,8.37.22,15.72,5.99,22.05-.28.03-1.36-.43-3.18-1.39-1.88-.96-2.99-1.42-3.3-1.33-2.69.77,1.98,7.04,5.47,9.33-.15.09-5.37-2.25-8-7.75-2.96-6.08-4.45-15.57-2.93-23.75,1.05-5.59,2.87-10.01,5.53-13.25h0"/><path class="cls-4" d="M155.01,91.34c.71.65,4.88-2.87,6.79-5.84.19-.28.65-1.2,1.42-2.75,2.16-4.32,3.83-4.54,5-.71.25.86.37,2.56.37,5.13,0,1.23.09,1.91.22,2.01.43-.22.77-.52,1.05-.93.53-.77.96-2.35,1.33-4.76.37-2.38-.09-5.47-1.36-9.27-2.69-8.03-5.87-14.42-9.54-19.18-3.06-3.92-4.69-5.9-4.85-5.9h-.52c0,.09,0,.15-.06.25,4.35,9.39,5.77,19.15,4.23,29.34-.68,4.35-1.82,7.91-3.43,10.65-.59.96-.86,1.51-.8,1.7.06.12.09.19.15.25h0M165.94,102.72l-.4.06h0c-.28.46-.77,2.44-1.48,5.93-1.54,7.51-4.63,11.86-9.26,13.06-4.85,1.27-9.45-.77-16.55-9.82-6.24-7.91-9.91-12.2-15.13-15.32-9.57-5.71-21.21-6.64-36.68-6.21-7.47.22-14.17,1.02-20.07,2.44-.03,0-5.09,1.27-15.13,3.77-7.87,1.98-17.11,3.55-27.64,4.79-.77.06-2.32.22-4.66.43-2.59.22-4.11.37-4.6.49h0l.31.06,1.48.56h0c3.67,1.39,9.76,1.98,18.28,1.76,6.42-.19,13.56-1.05,21.43-2.63,8.68-1.73,15.81-2.75,21.4-3.03h0l1.54-.09,1.33-.28h0c.56-.12,2.63-.03,6.21.28,3.58.28,7.63,1.17,12.04,2.66h0l1.48.49,1.45.53h0c3.58,1.3,5.68.74,6.3-1.7h0l.22.06.86,1.45h0c1.98,3.21,4.72,4.91,8.24,5.07.46.03,1.48-.09,3.06-.37.74-.15,1.23-.12,1.42.09.03.15-.12.74-.4,1.82-.15.62-.25.99-.22,1.14,0,.06,1.11,1.24,3.33,3.55h0l1.11,1.2,1.11,1.2.99,1.3,1.11,1.17h0c3.86,4.05,6.76,7.26,8.71,9.7h0l.62-.06h0c2.07-3.46,6.27-3.61,9.79.8,4.66,5.84,5.37,10.84,3.89,16.68-.31,1.2-.4,1.82-.31,1.82,2.75-1.48,6.17-8.03,5.74-12.35-.43-4.23-.19-4.91,1.67-8.03,1.82-3.03,3.37-6.86,4.63-11.46.62-2.32,1.33-5.34,2.13-9.11.15-.8.28-1.3.34-1.51.37-1.45.46-2.25.31-2.41h0M111.54,157.79c.12.03.28.03.4,0,.03-.12.09-.19.22-.19-.06-.43-.46-3.03-1.2-7.75-.37-2.47-.31-5.16.19-8.06.86-5.13,1.51-24.4-2.19-31.44h-.62c-.4,3.09-1.73,4.54-4.01,4.32-1.42-.15-5.74-2.16-12.91-6.02-6.21-3.33-10.56-5.28-13-5.9-4.26-1.02-7.66-1.14-10.22-.37h0l-1.73.56h-.31v.19h0c.25.06,1.27.25,3.06.49,7.87,1.14,19.17,6.42,25.88,12.82,4.08,3.89,6.67,7.63,7.78,11.21,1.17,3.74,1.67,6.79,1.48,9.14-.68,9.85-.74,14.27,3.03,18.28,1.61,1.73,2.99,2.62,4.17,2.72h0M128.5,84.21h-.62c-.68,1.05-.06,4.94,2.22,8.18,3.27,4.6,6.64,3.58,6.76,3.31-2.66-.93-4.91-3.18-6.79-6.79-.99-1.91-1.51-3.49-1.58-4.69h0M148.84,143.17h.22c.37,0-.49-8.06-3.24-10.62-3.49-3.27-7.75,0-6.76,1.05,2.16-.43,3.64-.46,4.48-.12,1.73.77,3.21,2.97,4.48,6.55.4,1.17.68,2.22.83,3.15h0M144.47,150.9c1.24.15,4.48-9.88-1.45-13.56-.62-.37-1.17-.59-1.64-.65-.56-.06-.93-.06-1.11.06-.03.03-.09.03-.12.03,1.14,2.01,1.54,3.12,1.27,3.3h0l-.68.46h0c-.74.53-1.11,1.02-1.11,1.48.03,1.76,1.14,3.74,3.27,5.96.77.8,1.14,1.2,1.14,1.27h0l.43,1.64h0M132.97,167.81l.49-.06h0c.28-.43.59-.86.86-1.3,2.87-4.48,4.88-6.79,6.02-6.95h0l1.58-.22h0c.18-.03,1.08-1.27,2.72-3.71h0l.86-1.27,1.05-1.14h0s.06-.46-.12-.49c-.06-.03-.34.06-.9.28-5.34,1.98-9.6-8.43-7.6-13.37h0l.59-1.42h0c.12-.34,0-.59-.37-.74-1.17.9-4.51,7.01-6.02,14.05-1.76,8.18-1.48,13.62.83,16.34h0M101.31,86.28c-.25.74,2.53,2.04,3.89,2.44.83.28,3.98.77,9.42,1.51,4.23.59,7.63,1.88,10.22,3.92,3.18,2.47,5.84,4.11,8.03,4.94,5,1.88,8.49,2.29,10.44,1.14h0v-.22h0c-5.25-.19-9.2-1.48-11.86-3.92-3.15-2.87-5.28-6.52-6.39-10.87h0l-.37-1.58h0c-.09-.31-.34-.71-.77-1.24-2.22,2.1-3.52,3.24-3.92,3.49-.86.49-1.94.93-3.24,1.2h0l-1.76.28-1.54.4h0c-.22.06-1.98,0-5.25-.19-1.51-.09-3.24-.37-5.19-.9h0l-1.7-.43h0"/><path class="cls-4" d="M148.32,98.89h.4c0-.09.03-.15.12-.18,0-.09-.03-.19-.06-.31-.37-1.05-.06-2.47.15-2.47h1.33c.86,0,1.7-.25,2.47-.74-.25-.77-.31-1.27-.12-1.48.25-.31.34-.62.25-.86-.15-.22-.71-.15-1.67.19-.71.28-2.66-.22-3.8-1.33-1.2-1.17-2.93-6.45-2.99-7.1-.06-.87.12-1.51.62-1.95h2.47c.25,0,.86-.46,1.85-1.36.31-.46-.06-.53-1.05-.15-.77.28-1.36.25-1.73-.15,0-.15,0-.25.06-.31h0l1.48-1.33h0c.96-.86,2.69-3.71,2.07-3.71h-.31c-.99,2.5-4.35,5.44-7.1,3.3h0l-1.3-1.02h0c-2.75-2.13-5.19-2.9-7.38-2.35-.09.03-.59.18-1.51.56-2.1.77-3.58.62-4.42-.49-.25-.34-.62-1.51-1.05-3.49h-.19c.03.31-.09.53-.43.62-.03,1.79.86,5.44,2.25,5.9h0l1.48.49h0c1.33.46,2.35,2.16,3.03,5.13h0l.31,1.51h0c.68,3.43,1.91,4.91,5.93,6.64,1.73.71,3.24,1.11,4.54,1.2h0l1.57.09h0c.46.03.9.31,1.27.8.03.06.15.56.34,1.51h0l.34,1.51h0c.06.37.31.8.77,1.33h0"/><path class="cls-5" d="M139.71,80.1c.34-.06.61-.06.8,0,1.26.37,2.18,4.09,1.81,4.4h0l-.92.74h0c-2.55,2.12-.46,4.52.95,4.8h0v.22h0c0,.18-.37.25-1.11.18-.09,0-3.04-.68-4.06-2.99-1.41-3.29.71-7.02,2.52-7.35h0"/><path class="cls-5" d="M141.88,86.64c.37-.37.83-.46,1.42-.31.87.22,1.02.9.43,1.98-.56,1.08-2.25-.43-2.16-1.05.03-.22.15-.43.31-.62h0"/><path class="cls-5" d="M145.33,91.36c.71.31.49,1.33-.12,1.33h-.93l-.86-.4-.06-.19-.09-.06h0c.06-.09,1.08-1.08,2.07-.68h0"/><path class="cls-5" d="M135.51,76.99c2.1-.06,3.21.25,3.4.93.06.25-.31.68-1.08,1.3h0l-1.14.93-.77,1.27h0c-.15.28-.43.65-.86,1.14-.31-.56-1.02-1.48-2.1-2.78h0l-1.14-1.33h0c-.25-.31.09-.68,1.05-1.11.4-.19,1.3-.28,2.66-.34h0"/><path class="cls-5" d="M144.7,49.21c.31,1.88-7.41,8.03-19.39,9.76-5.06.74-8.83.34-11.3-1.17,4.04-4.11,6.79-6.39,12.54-8.52,3.27-1.2,6.39-1.7,9.33-1.48,2.44.19,4.23.37,5.34.59,2.32.49,3.46.74,3.49.83h0"/><path class="cls-5" d="M73.66,71.29h.31l1.42.77h0c2.66,1.51,16.55,3.14,5.96-.99-3.56-1.39-4.79-4.97-5.84-7.17-1.23-2.56-2.01-5.53-2.25-8.83-.15-1.73.62-7.57,1.39-9.67h0l.56-1.45h0c.28-.74.81-3.41-.39-3.2-1.27.22-3.71,3.6-5.41,6.9h0l-.06-.62h0c-.22-2.63,3.46-17.45,11.02-22.85.15.03.34.06.49.03.18.59.34,1.14.49,1.7,1.14,4.14,2.38,6.76,3.64,7.84.68.22,1.23-.62,1.23-.93h0v-1.54h0c0-2.01.62-3.92,1.88-5.78.09,0,.15.03.15.09h0l.19,1.76h0c.09.9.49,2.01,1.17,3.3.68,1.3,1.51,2.01,2.47,2.16.4-.28.62-.49.62-.62h0v-1.58h0c0-2.01.62-3.95,1.88-5.84.09,0,.15.03.15.09h0l.25,1.73h0c.06.59.46,1.7,1.14,3.3.59,1.36,1.2,2.32,1.82,2.9.71.18,1.24-.53,1.24-.74h0v-1.73h0c0-1.36.46-3.06,1.33-5.07h.22v.43h0c0,1.42,3.3,8.93,4.88,6.64.06-.09.03-.77-.09-2.07-1.08-12.54,12.38-16.8,17.48-13.19,3.21,2.22,4.66,6.33,4.38,12.32-.4,8.43-5.5,13.31-15.32,14.64-1.85.25-3.18.03-4.04-.65-.09-.09-.46-.49-1.11-1.24-8.37-9.6-21.89-5.28-26.8-.28-4.45,4.54-8.37,16.06-1.05,24.83,2.53,3,5.87,4.26,10.04,3.77,3.24-.4,5.84-2.13,7.81-5.16h.22v.62h0c0,7.29-7.69,15.5-16.64,11.37-1.08-.49-4.97-3.09-6.82-6.05h0"/><path class="cls-5" d="M144.55,22.51h.71c2.16,0,5.13.96,8.89,2.9,6.48,3.3,9.54,6.83,9.23,10.59-.43,5.07-9.66-.4-13.34-5.53-3.67-5.13-5.5-7.75-5.5-7.88h0v-.09h0"/><path class="cls-5" d="M125,122.22c.65-.25,4.29,3.52,5.93,5.99,2.41,3.64,2.44,6.27-.03,12.72-.83,2.16-1.48,3.77-1.98,4.76h-.22c0-.19-.06-.31-.22-.4.46-6.64.34-11.21-.37-13.68-.34-1.27-1.14-3.18-2.38-5.81-1.02-2.19-1.27-3.4-.74-3.58h0"/><path class="cls-5" d="M124.13,140.84h1.85c1.02,0,1.58,2.16,1.54,2.38h0l-.15,1.08h0c-.15,1.11-.15,2.41.06,3.95.03.25,0,1.98-.06,5.19h0l-.06,1.73h0c-.03,1.45-6.27.68-5.56-2.59.19-.74.93-1.33,2.29-1.73,0-.15-.25-.43-.71-.83-.62-.46-.86-.93-.74-1.33.83-.74,2.01-1.24,3.61-1.45h0l-.06-.31h0c-2.22-.22-3.33-.9-3.33-1.95h0v-1.85h0c0-.8.71-2.29,1.33-2.29h0"/><path class="cls-5" d="M121.4,156.96h.18l1.33-.22h0c2.63-.43,4.11.03,4.45,1.36.31,1.2-.46,1.67-2.29,1.36-2.72-.46-4.01-1.11-3.86-2.01,0-.06.03-.15.12-.25.06-.06.06-.15.06-.25h0"/><path class="cls-5" d="M118.92,159.03c.12-.06.28-.06.49,0h0l1.67.59,1.73.4,1.76.37,1.73.37h0c.93.19,1.3.8,1.17,1.88-.09.65-.18,1.11-.22,1.45-1.05-.12-2.56-.68-4.54-1.67h0l-1.45-.71-1.51-.56h0c-1.73-.65-1.11-1.95-.83-2.13h0"/><path class="cls-5" d="M113.07,110.31c.59-.37,1.54.93,1.54,1.11h0v.22l-.43.4h-.49c-.34,0-1.67-1.08-.62-1.73h0"/><path class="cls-5" d="M114.25,113.47c.25-.25,2.78-.77,2.38.53-.09.28-.19.4-.31.4h-1.33c-.43,0-1.05-.59-.74-.93h0"/><path class="cls-5" d="M119.85,117.38c0,.25-.74.09-.74-.31h0v-.62h0c0-.31.28-.28.87.06.43.28,0,.68-.12.65h0v.22h0"/><path class="cls-5" d="M120.93,118.5h.53c.68,0,1.39,1.39,2.13,4.14.34,1.23.4,2.04.19,2.41-.93,1.58-2.96,1.42-3.55-1.33-.59-2.9-.68-4.45-.28-4.63h0l.53-.25.46-.34h0"/><path class="cls-5" d="M124.47,126.73c.31.15,3.27,3.8,1.48,5.87-.68.74-3.92,1.33-3.83.22h0l.03-.8h0c.03-.46.06-.74.06-.77.09-1.02.03-1.67-.18-2.01-1.14-1.7,1.17-3.06,2.44-2.5h0"/><path class="cls-5" d="M124.99,134.48c2.04.22,2.04.77,1.98,2.66h0l-.06,1.2h0c0,.49-3.24,2.59-4.38-.15-.68-1.64-.28-4.01,2.47-3.71h0"/><path class="cls-5" d="M114.99,115.93h1.54c1.24,0,2.53,2.22.65,3.12-.86.4-1.67.4-2.41,0-.37-.18-.65-.88-.65-1h0l-.05-1.1h0c0-.68.2-1.02.91-1.02h0"/><path class="cls-5" d="M117.07,119.81c3.06-.12,1.98,2.56,1.02,2.25,0,.09.03.12.09.15-.4,0-1.05.12-1.91.4h0l-.96.28h0c-.74.22-1.51-1.95-.37-2.75.03-.03,1.94-.34,2.13-.34h0"/><path class="cls-5" d="M117.06,123.69h1.54c.19,0,.4.15.62.43.15.22.15.53,0,.96-.15.43-.65.8-1.45,1.17-1.17.49-2.53.12-2.72-.12-.59-.83-.31-2.44,2.01-2.44h0"/><path class="cls-5" d="M119.22,126.72h.49c.28,0,1.05.96.71,2.16-2.25,1.3-4.01,1.89-5.34,1.73,0-.06-.03-.12-.09-.19-.59-.9-.15-2.59,1.82-3.03h0l1.24-.25,1.17-.43h0"/><path class="cls-5" d="M120.23,130.53c1.02-.03,1.17,2.22.06,2.56h0l-1.2.37-1.17.4h0c-1.51.49-2.38.59-2.59.31-.86-1.14-.09-2.07,2.38-2.81h0l1.3-.37,1.24-.46h0"/><path class="cls-5" d="M119.61,134.23c2.32-.24,1.82,1.92,1.08,2.55-.62.51-5.22.69-5.4.42-.34-.48-.22-.96.31-1.5.12-.12,3.49-1.41,4.01-1.47h0"/><path class="cls-5" d="M115.02,140.32c-.22,0-.4-.15-.53-.49.15-.56.46-.99.93-1.3.4-.25,4.29-.9,5.47-.4.46.22.77.46.93.74.37.68.31,1.14-.19,1.45-.37.22-.59.34-.65.31h0l-2.47-.31h-3.49"/><path class="cls-5" d="M121.36,141.64c.46.37.09.9-1.11,1.48-.65.34-5.5,1.36-6.08.06-.4-.9.71-1.85,1.23-1.85h4.82c.52,0,.89.09,1.14.31h0"/><path class="cls-5" d="M115.1,144.77h1.05s.56-.09,1.61-.28c2.25-.4,3.58-.49,3.89-.28.12.09.25.77.37,2.1-2.87,1.48-7.87,1.14-8,.96-.09-.15-.15-.28-.15-.43h0v-1.36h0c0-.46.43-.71,1.23-.71h0"/><path class="cls-5" d="M118.8,148.07c2.01-.12,2.66-.06,2.78.93.09.65-.49,1.95-.71,1.95h0l-5.87.12h0c-.09,0-2.01-1.3.25-2.53.34-.19,1.51-.34,3.55-.46h0"/><path class="cls-5" d="M117.19,151.76h.71l1.98.12h0c.12,0,1.11.53,1.11,1.02h0v1.14h0c0,.06-.03.09-.09.09h0l-5.46.4h0c-.37.03-2.5-2.78,1.76-2.78h0"/><path class="cls-5" d="M117.7,155.5c1.2-.03,1.95.22,2.16.71.34.8-.31,1.67-1.05,1.67h-1.73c-.09,0-1.51-.46-1.58-.49-.59-.49-.46-1.2-.06-1.61.19-.15.93-.25,2.25-.28h0"/><path class="cls-6" d="M12.33,184.84h2.41l-4.99,12.84h-2.25l.18-12.84h2.4l-.44,7.8,2.68-7.8Z"/><path class="cls-6" d="M19.89,184.84h2.41l-2.58,12.84h-2.41l2.58-12.84Z"/><path class="cls-6" d="M29.31,187.9c-.06.28-.03.55.1.81.12.26.3.48.53.67.23.19.49.4.78.62.29.23.58.46.85.69.28.23.52.51.74.85.21.33.36.71.44,1.12.08.41.06.91-.04,1.5-.2.98-.71,1.81-1.54,2.5-.83.69-1.73,1.03-2.7,1.03s-1.73-.34-2.28-1.03c-.55-.69-.73-1.52-.53-2.5l.13-.67h2.41l-.23,1.16c-.07.31-.02.57.16.79.18.22.42.33.73.33s.6-.11.86-.33c.26-.22.43-.48.49-.79.06-.33.05-.64-.02-.92-.07-.28-.2-.52-.38-.73-.18-.2-.39-.41-.62-.62-.24-.21-.48-.4-.74-.58s-.5-.38-.73-.62c-.23-.24-.43-.48-.6-.73-.17-.25-.28-.55-.35-.9-.06-.35-.05-.75.03-1.17.2-.98.71-1.81,1.54-2.5s1.73-1.03,2.7-1.03,1.73.34,2.28,1.03.73,1.52.53,2.5h-2.4l.09-.47c.07-.32.01-.58-.16-.8-.18-.22-.42-.33-.73-.33s-.6.11-.86.33c-.26.22-.43.49-.49.8Z"/><path class="cls-6" d="M43.83,190.98c.5.31.85.74,1.07,1.3.22.56.26,1.16.13,1.82-.2.98-.72,1.83-1.56,2.53-.84.7-1.76,1.05-2.74,1.05h-3.48l2.58-12.84h3.48c.92,0,1.63.32,2.14.97.51.65.68,1.43.5,2.34-.12.59-.37,1.13-.75,1.63-.38.5-.84.89-1.38,1.19ZM41.17,195.75c.31,0,.61-.19.9-.56.3-.37.49-.82.6-1.34s.08-.97-.06-1.34-.37-.56-.69-.56h-1.12l-.77,3.8h1.13ZM41.85,186.77l-.65,3.26h.86c.31,0,.6-.16.89-.47.28-.32.47-.7.56-1.16s.06-.84-.1-1.16c-.15-.32-.39-.47-.69-.47h-.86Z"/><path class="cls-6" d="M56.16,184.84h2.4l-3.8,7.38-1.1,5.46h-2.4l1.09-5.46-.85-7.38h2.41l.19,4.62,2.05-4.62Z"/><path class="cls-6" d="M76.62,195.19c-.07.35-.12.68-.14.98-.03.3-.03.54-.02.72.01.18.03.33.06.45.03.12.06.21.08.26.02.05.04.08.05.08h-2.62c-.07-.72,0-1.55.19-2.49l.23-1.21c.04-.19.07-.36.07-.52s0-.3-.03-.41c-.02-.12-.06-.22-.11-.31s-.1-.16-.16-.22c-.06-.06-.13-.1-.22-.15-.09-.04-.17-.07-.24-.09-.07-.02-.16-.03-.26-.04-.11-.01-.19-.02-.24-.02h-.51l-1.09,5.46h-2.4l2.57-12.84h3.53c.18,0,.32,0,.42,0s.26.02.46.04.37.05.51.09.29.1.48.19c.18.09.33.19.44.31.11.12.22.27.33.46.11.19.19.4.23.64.04.24.06.53.05.86,0,.33-.05.7-.13,1.1-.08.4-.21.76-.4,1.1-.18.33-.38.6-.58.79s-.41.36-.6.49-.36.22-.49.28l-.19.08s.02,0,.05.01c.02,0,.06.03.13.06s.13.07.19.12c.06.04.13.11.2.19.07.08.14.17.2.26.06.09.12.2.17.34.06.14.09.28.12.44.02.16.03.34.03.55s-.03.43-.08.66l-.26,1.3ZM73.6,190.3c.19,0,.34,0,.46-.01.12,0,.28-.04.48-.1.21-.06.37-.15.51-.26.13-.12.27-.29.4-.53.13-.24.23-.52.3-.87.04-.19.07-.36.07-.52,0-.16,0-.3-.03-.41-.02-.12-.06-.22-.12-.31-.06-.09-.11-.16-.16-.22-.05-.06-.12-.1-.22-.15-.09-.04-.17-.07-.24-.09-.06-.02-.15-.03-.26-.05-.11-.01-.19-.02-.25-.02h-.69l-.71,3.53h.45Z"/><path class="cls-6" d="M84.96,185.88c.83-.69,1.73-1.03,2.7-1.03s1.74.34,2.29,1.03c.55.69.73,1.52.53,2.5l-1.17,5.78c-.2.98-.71,1.81-1.53,2.5-.83.69-1.73,1.03-2.7,1.03s-1.74-.34-2.29-1.03c-.55-.69-.73-1.52-.53-2.5l1.17-5.78c.2-.98.71-1.81,1.53-2.5ZM88.17,187.9c.06-.32,0-.58-.17-.8-.18-.22-.42-.33-.73-.33s-.59.11-.86.33c-.27.22-.43.49-.49.8l-1.36,6.73c-.06.32,0,.58.17.8.18.22.42.33.73.33s.59-.11.86-.33c.27-.22.43-.49.49-.8l1.36-6.73Z"/><path class="cls-6" d="M103.05,184.84h3.53l-2.58,12.84h-2.4l2.2-10.91-3.97,10.91h-1.77l.42-10.91-2.19,10.91h-2.4l2.58-12.84h3.53l-.08,7.98,3.13-7.98Z"/><path class="cls-6" d="M114.47,197.68l.19-2.54h-2.58l-.82,2.54h-2.41l4.99-12.84h3.21l-.18,12.84h-2.4ZM112.72,193.21h2.09l.49-6.44h-.47l-2.11,6.44Z"/><path class="cls-6" d="M136.04,190.3l1.09-5.46h2.4l-2.57,12.84h-2.41l1.09-5.46h-2.25l-1.09,5.46h-2.4l2.57-12.84h2.41l-1.09,5.46h2.25Z"/><path class="cls-6" d="M145.61,185.88c.83-.69,1.73-1.03,2.7-1.03s1.74.34,2.29,1.03c.55.69.73,1.52.53,2.5l-1.17,5.78c-.2.98-.71,1.81-1.53,2.5-.83.69-1.73,1.03-2.7,1.03s-1.74-.34-2.29-1.03c-.55-.69-.73-1.52-.53-2.5l1.17-5.78c.2-.98.71-1.81,1.53-2.5ZM148.82,187.9c.06-.32,0-.58-.17-.8-.18-.22-.42-.33-.73-.33s-.59.11-.86.33c-.27.22-.43.49-.49.8l-1.36,6.73c-.06.32,0,.58.17.8.18.22.42.33.73.33s.59-.11.86-.33c.27-.22.43-.49.49-.8l1.36-6.73Z"/><path class="cls-6" d="M159.63,194.62l.4-1.98h2.41l-.31,1.5c-.2.98-.71,1.81-1.53,2.5-.83.69-1.73,1.03-2.7,1.03s-1.74-.34-2.29-1.03c-.55-.69-.73-1.52-.53-2.5l1.17-5.78c.2-.98.71-1.81,1.53-2.5s1.73-1.03,2.7-1.03,1.74.34,2.29,1.03c.55.69.73,1.52.53,2.5l-.21,1.03h-2.41l.31-1.5c.06-.32,0-.58-.17-.8-.18-.22-.42-.33-.73-.33s-.59.11-.86.33c-.27.22-.43.49-.49.8l-1.36,6.73c-.06.32,0,.58.17.8.18.22.42.33.73.33s.59-.11.86-.33c.27-.22.43-.49.49-.8Z"/><path class="cls-6" d="M176.33,184.84l-3.49,5.46.92,7.38h-2.41l-.62-4.93-.92,1.44-.71,3.49h-2.4l2.57-12.84h2.41l-1.03,5.1,3.27-5.1h2.4Z"/><path class="cls-6" d="M182.79,190.3h3.45l-.38,1.93h-3.45l-.71,3.53h3.44l-.39,1.93h-5.85l2.58-12.84h5.85l-.38,1.93h-3.45l-.71,3.53Z"/><path class="cls-6" d="M196.8,184.84h2.4l-3.8,7.38-1.1,5.46h-2.4l1.09-5.46-.85-7.38h2.41l.19,4.62,2.05-4.62Z"/><rect class="cls-1" width="200" height="200"/></g></svg>